<svg width="12" height="13" viewBox="0 0 12 13" fill="none" xmlns="http://www.w3.org/2000/svg">
<path d="M10.9 12.6166L6.88333 8.59994C6.55 8.88883 6.16111 9.11383 5.71667 9.27494C5.27222 9.43605 4.8 9.51661 4.3 9.51661C3.1 9.51661 2.08333 9.09994 1.25 8.26661C0.416667 7.43328 0 6.42772 0 5.24994C0 4.07217 0.416667 3.06661 1.25 2.23328C2.08333 1.39994 3.09444 0.983276 4.28333 0.983276C5.46111 0.983276 6.46389 1.39994 7.29167 2.23328C8.11944 3.06661 8.53333 4.07217 8.53333 5.24994C8.53333 5.72772 8.45555 6.18883 8.3 6.63328C8.14444 7.07772 7.91111 7.49439 7.6 7.88328L11.65 11.8999C11.75 11.9888 11.8 12.1027 11.8 12.2416C11.8 12.3805 11.7444 12.5055 11.6333 12.6166C11.5333 12.7166 11.4111 12.7666 11.2667 12.7666C11.1222 12.7666 11 12.7166 10.9 12.6166ZM4.28333 8.51661C5.18333 8.51661 5.95 8.19716 6.58333 7.55828C7.21667 6.91939 7.53333 6.14994 7.53333 5.24994C7.53333 4.34994 7.21667 3.5805 6.58333 2.94161C5.95 2.30272 5.18333 1.98328 4.28333 1.98328C3.37222 1.98328 2.59722 2.30272 1.95833 2.94161C1.31944 3.5805 1 4.34994 1 5.24994C1 6.14994 1.31944 6.91939 1.95833 7.55828C2.59722 8.19716 3.37222 8.51661 4.28333 8.51661Z" fill="#DC0A2D"/>
</svg>
